<svg xmlns="http://www.w3.org/2000/svg" viewBox="0 0 123.27 90"><defs><style>.cls-1{fill:#231f20;}.cls-2{fill:none;stroke:#fff;stroke-miterlimit:10;stroke-width:0.81px;}.cls-3{fill:#d7182a;}</style></defs><g id="Layer_2" data-name="Layer 2"><g id="Header_Logo" data-name="Header Logo"><path class="cls-1" d="M77.26,38l-1,3.83c-.73,2.93-2.74,4.37-6.07,4.38h-1.8c-3.32,0-4.57-1.45-3.85-4.34l1.24-5h4L68.6,41.75c-.22.9.17,1.34,1.24,1.34h.53a1.71,1.71,0,0,0,1.91-1.35l.8-3.22a1.58,1.58,0,0,0-.67-1.92L68.94,34c-1.55-1.14-1.81-2.25-1.36-4.06l.81-3.23c.72-2.92,2.73-4.37,6.06-4.37h1.72q4.93,0,3.86,4.33L79,30.89h-4l1-4.13c.22-.91-.17-1.35-1.2-1.35h-.5a1.68,1.68,0,0,0-1.86,1.35l-.66,2.62a1.57,1.57,0,0,0,.67,1.92L75.9,34c1.52,1.14,1.84,2.15,1.36,4.06"/><path class="cls-2" d="M77.26,38l-1,3.83c-.73,2.93-2.74,4.37-6.07,4.38h-1.8c-3.32,0-4.57-1.45-3.85-4.34l1.24-5h4L68.6,41.75c-.22.9.17,1.34,1.24,1.34h.53a1.71,1.71,0,0,0,1.91-1.35l.8-3.22a1.58,1.58,0,0,0-.67-1.92L68.94,34c-1.55-1.14-1.81-2.25-1.36-4.06l.81-3.23c.72-2.92,2.73-4.37,6.06-4.37h1.72q4.93,0,3.86,4.33L79,30.89h-4l1-4.13c.22-.91-.17-1.35-1.2-1.35h-.5a1.68,1.68,0,0,0-1.86,1.35l-.66,2.62a1.57,1.57,0,0,0,.67,1.92L75.9,34C77.42,35.09,77.74,36.1,77.26,38Z"/><polygon class="cls-1" points="88.91 32.39 91.39 22.48 95.48 22.48 89.62 46 85.52 46 88.1 35.65 84.16 35.66 81.58 46.01 77.49 46.01 83.35 22.49 87.44 22.48 84.97 32.4 88.91 32.39"/><polygon class="cls-2" points="88.91 32.39 91.39 22.48 95.48 22.48 89.62 46 85.52 46 88.1 35.65 84.16 35.66 81.58 46.01 77.49 46.01 83.35 22.49 87.44 22.48 84.97 32.4 88.91 32.39"/><path class="cls-1" d="M99.09,46.2H96.91c-3.33,0-4.61-1.45-3.88-4.37l3.78-15.19c.73-2.92,2.74-4.37,6.07-4.37h2.18c3.33,0,4.61,1.44,3.88,4.37l-3.78,15.19c-.73,2.92-2.74,4.36-6.07,4.37m4.53-20.77h-.84a1.71,1.71,0,0,0-1.91,1.38L97.16,41.66c-.23.94.16,1.38,1.23,1.38h.84a1.69,1.69,0,0,0,1.87-1.38l3.71-14.85c.23-.95-.16-1.38-1.19-1.38"/><path class="cls-2" d="M99.09,46.2H96.91c-3.33,0-4.61-1.45-3.88-4.37l3.78-15.19c.73-2.92,2.74-4.37,6.07-4.37h2.18c3.33,0,4.61,1.44,3.88,4.37l-3.78,15.19C104.43,44.75,102.42,46.19,99.09,46.2Zm4.53-20.77h-.84a1.71,1.71,0,0,0-1.91,1.38L97.16,41.66c-.23.94.16,1.38,1.23,1.38h.84a1.69,1.69,0,0,0,1.87-1.38l3.71-14.85C105,25.86,104.65,25.43,103.62,25.43Z"/><path class="cls-1" d="M110.58,46h-4.09l5.86-23.52h6.43c3.33,0,4.62,1.44,3.89,4.37l-1.56,6.25c-.73,2.92-2.74,4.37-6.07,4.37h-2.33Zm6.76-20.37h-1.68l-2.16,8.67h1.68a1.71,1.71,0,0,0,1.88-1.38L118.53,27c.23-.94-.15-1.38-1.19-1.38"/><path class="cls-2" d="M110.58,46h-4.09l5.86-23.52h6.43c3.33,0,4.62,1.44,3.89,4.37l-1.56,6.25c-.73,2.92-2.74,4.37-6.07,4.37h-2.33Zm6.76-20.37h-1.68l-2.16,8.67h1.68a1.71,1.71,0,0,0,1.88-1.38L118.53,27C118.76,26.06,118.38,25.62,117.34,25.62Z"/><path class="cls-3" d="M34.08,52.05,31.7,57.47c4.44-.46,8.56-.67,12.32-.7l-2.5-5.7c-2.61.28-5.08.61-7.44,1"/><path class="cls-3" d="M56.23,50.15l-2.69,6.92A79.07,79.07,0,0,1,68,59.25l4.25-8.87c-5.71-.29-11-.35-16.05-.23"/><path class="cls-3" d="M2.48,62.65a13.91,13.91,0,0,0-2.48,2c-.07.11,4.09-1.55,10.64-3.29,6.07-1.6,9.21-2.13,12.47-2.73-.5-1.28-1-2.63-1.56-4-10.49,2.79-16.28,6-19.07,8"/><polygon class="cls-1" points="38.01 11.52 49.13 40.06 69.48 0 49.24 26.6 38.02 1.08 26.79 26.6 6.55 0 26.9 40.06 38.01 11.52"/><path class="cls-1" d="M56.23,50.15c2.16-5.55,4.26-10.92,5.37-13.75C65.44,26.62,74.89,0,74.89,0L48.78,53.31C45.84,46,38,26.66,38,26.66,37.47,28,30.18,46,27.24,53.3L1.14,0s9.45,26.62,13.29,36.4c1.41,3.6,4.41,11.31,7.12,18.25.53,1.38,1.06,2.73,1.56,4l3.79,9.77,4.8-11,2.38-5.42,3.94-9,3.5,8,2.5,5.7,5.11,11.66,4.41-11.36,2.69-6.92"/><path class="cls-1" d="M55.35,60.32a1,1,0,1,1,1-1,1,1,0,0,1-1,1m0-1.85a.79.79,0,0,0-.78.84.78.78,0,1,0,1.55,0,.79.79,0,0,0-.77-.84m-.2,1.42H55V58.77h.43c.27,0,.41.09.41.32a.3.3,0,0,1-.29.31l.31.49h-.21l-.29-.48h-.17Zm.2-.64c.14,0,.26,0,.26-.17s-.13-.15-.24-.15h-.22v.32Z"/><path class="cls-1" d="M39.93,82a2.36,2.36,0,0,1,2.3,2.65v2.95a.08.08,0,0,1-.07.07H40.81a.07.07,0,0,1-.08-.07V84.63a1.13,1.13,0,0,0-1.14-1.28h0a1.25,1.25,0,0,0-1.19,1.24v3a.07.07,0,0,1-.07.08H37a.08.08,0,0,1-.08-.08V82.11A.08.08,0,0,1,37,82h1.29a.08.08,0,0,1,.07.07v.49a2.37,2.37,0,0,1,1.6-.63M60.5,86.66a.09.09,0,0,0,0,.11,3.17,3.17,0,0,0,2.43.9,2.25,2.25,0,0,0,2.19-1.11,1.82,1.82,0,0,0,.14-.7c0-1.44-1.24-1.69-2.32-1.77-.86,0-.86-.35-.86-.46,0-.36.58-.4.83-.4a1.69,1.69,0,0,1,1.15.37.08.08,0,0,0,.11,0l.76-.89a.08.08,0,0,0,0-.11,2.88,2.88,0,0,0-2-.66,3,3,0,0,0-1.5.38,1.5,1.5,0,0,0-.79,1.35c0,1,.79,1.61,2.24,1.72.82,0,.92.29.92.49s-.39.46-.79.46h0a2.56,2.56,0,0,1-1.65-.63s-.09,0-.11,0Zm-13.56-.92a1.57,1.57,0,0,0,.32-1,1.45,1.45,0,1,0-1.46,1.49,1.59,1.59,0,0,0,1.14-.48m.28-3.63A.08.08,0,0,1,47.3,82h1.33a.08.08,0,0,1,.08.07v5.46a.08.08,0,0,1-.08.07H47.3a.07.07,0,0,1-.08-.07v-.41a2.1,2.1,0,0,1-1.51.45h-.08a2.7,2.7,0,0,1-2-.73,2.93,2.93,0,0,1-.79-2.14,2.63,2.63,0,0,1,2.79-2.82h0a2.34,2.34,0,0,1,1.53.41ZM30.59,80.68V79.37a.09.09,0,0,0-.09-.1H25.63a.1.1,0,0,0-.1.1v8.18a.1.1,0,0,0,.1.09h1.31a.09.09,0,0,0,.1-.09V84.21a.1.1,0,0,1,.1-.1h2.45a.09.09,0,0,0,.09-.09V82.7a.09.09,0,0,0-.09-.09H27.14a.1.1,0,0,1-.1-.1V80.86a.09.09,0,0,1,.1-.09H30.5c.05,0,.09,0,.09-.09m28.62,5.21a.07.07,0,0,0-.1,0,1.54,1.54,0,0,1-.92.34,1.44,1.44,0,0,1,0-2.87,1.49,1.49,0,0,1,.92.34.08.08,0,0,0,.1,0l.86-.91a.08.08,0,0,0,0-.11,2.54,2.54,0,0,0-1.9-.76,2.88,2.88,0,1,0,0,5.76,2.57,2.57,0,0,0,1.9-.75.08.08,0,0,0,0-.11Zm-7,1.76a.08.08,0,0,0,.08-.07V86.35a.08.08,0,0,0-.08-.07h-.66c-.39,0-.57-.21-.57-.63V83.55h1.23a.07.07,0,0,0,.07-.07V82.12a.08.08,0,0,0-.07-.07H51V80.86a.08.08,0,0,0-.08-.08H49.57a.08.08,0,0,0-.07.08v4.78a1.8,1.8,0,0,0,2,2h.75ZM34.3,85.74a1.51,1.51,0,0,0,.32-1,1.44,1.44,0,1,0-1.46,1.49,1.56,1.56,0,0,0,1.14-.48m.29-3.63a.07.07,0,0,1,.07-.07H36a.08.08,0,0,1,.07.07v5.46a.07.07,0,0,1-.07.07H34.66a.07.07,0,0,1-.07-.07v-.41a2.12,2.12,0,0,1-1.52.45H33a2.74,2.74,0,0,1-2-.73,2.93,2.93,0,0,1-.78-2.14A2.62,2.62,0,0,1,33,81.92h0a2.37,2.37,0,0,1,1.54.41Zm18.53,5.54h1.35a.08.08,0,0,0,.07-.07V82.12a.07.07,0,0,0-.07-.07H53.12a.07.07,0,0,0-.08.07v5.46a.08.08,0,0,0,.08.07m1.52-7.27a.84.84,0,0,0-1.67,0,.84.84,0,0,0,1.67,0"/><path class="cls-1" d="M23.27,77.7l-1.41,2.17a.11.11,0,0,1-.13,0c-3.24-1.63-7,1.37-10.26.65,0,0-.06,0-.07,0s-1.6-2.45-2.12-3.27A.15.15,0,0,1,9.43,77a18.25,18.25,0,0,0,2.48.41c5,.27,7.71-2.72,11.33.11A.14.14,0,0,1,23.27,77.7Zm-4.09,6.24a.07.07,0,0,0,.08,0L21,81.28a.06.06,0,0,0,0-.09c-2.45-.85-4.74.78-8.24.87a.14.14,0,0,0-.12.22l3.78,5.84a.09.09,0,0,0,.17-.05l-.81-3.7a.06.06,0,0,1,0-.07c.29-.1,2.42-.84,3.44-.36Z"/><path class="cls-1" d="M73.48,87.64H68.17V80.45h5.28v1.12H69.32v2h4v1.07h-4v1.93h4.17v1.12Z"/><path class="cls-1" d="M77.81,82.58H79.1v0l-1.71,2.46,1.82,2.54v0H77.93l-1.24-1.83-1.24,1.83H74.17v0L76,85.07l-1.71-2.46v0h1.28l1.13,1.81Z"/><path class="cls-1" d="M80.06,90V82.58h1l0,.82a1.91,1.91,0,0,1,.79-.7,2.32,2.32,0,0,1,1-.23,2.68,2.68,0,0,1,1,.2,2.62,2.62,0,0,1,.82.55,2.71,2.71,0,0,1,.52.83,2.85,2.85,0,0,1,.18,1.06,3,3,0,0,1-.17,1.07,2.37,2.37,0,0,1-.51.84,2.2,2.2,0,0,1-.81.55,2.74,2.74,0,0,1-1.06.19,2.77,2.77,0,0,1-.49,0,2.75,2.75,0,0,1-.49-.14,1.86,1.86,0,0,1-.45-.27,1.54,1.54,0,0,1-.36-.4V90H80.06Zm2.74-3.25a1.5,1.5,0,0,0,.64-.13,1.72,1.72,0,0,0,.51-.33,1.49,1.49,0,0,0,.33-.52,1.76,1.76,0,0,0,.12-.66A1.61,1.61,0,0,0,84,83.94a1.59,1.59,0,0,0-1.17-.45,1.78,1.78,0,0,0-.67.13,1.33,1.33,0,0,0-.49.35,1.48,1.48,0,0,0-.32.51,1.91,1.91,0,0,0-.11.64,1.64,1.64,0,0,0,.12.63,1.49,1.49,0,0,0,.33.52,1.46,1.46,0,0,0,.5.35A1.53,1.53,0,0,0,82.8,86.75Z"/><path class="cls-1" d="M87.38,85.52a1.4,1.4,0,0,0,.51.94A1.87,1.87,0,0,0,89,86.8a2.38,2.38,0,0,0,.81-.14,1.54,1.54,0,0,0,.66-.4l.69.66a2.74,2.74,0,0,1-.45.38,3.06,3.06,0,0,1-1.13.43,3.17,3.17,0,0,1-.6,0,3.08,3.08,0,0,1-1.13-.19,2.38,2.38,0,0,1-.86-.54,2.27,2.27,0,0,1-.55-.85,3,3,0,0,1-.19-1.1A3.08,3.08,0,0,1,86.48,84,2.51,2.51,0,0,1,87,83.2a2.46,2.46,0,0,1,.83-.55A2.94,2.94,0,0,1,89,82.46a3.33,3.33,0,0,1,1.12.19,2.15,2.15,0,0,1,1.34,1.52,4.14,4.14,0,0,1,.09,1.35Zm3.1-.89a1.26,1.26,0,0,0-.45-.92,1.7,1.7,0,0,0-1-.31,1.76,1.76,0,0,0-1,.31,1.38,1.38,0,0,0-.55.92Z"/><path class="cls-1" d="M93.56,82.58l.07.66a1.4,1.4,0,0,1,.68-.63,2.32,2.32,0,0,1,.81-.15,2.12,2.12,0,0,1,.71.12,1.56,1.56,0,0,1,.54.31l-.48.92a1.48,1.48,0,0,0-.4-.23,1.41,1.41,0,0,0-.49-.07,1.55,1.55,0,0,0-.53.09,1.28,1.28,0,0,0-.72.68,1.67,1.67,0,0,0-.11.62v2.74H92.58V82.58Z"/><path class="cls-1" d="M97,81.09a.56.56,0,0,1,.21-.49.77.77,0,0,1,.45-.16.69.69,0,0,1,.45.16.56.56,0,0,1,.21.49.58.58,0,0,1-.21.49.71.71,0,0,1-.45.16.69.69,0,0,1-.45-.16A.58.58,0,0,1,97,81.09Zm1.18,1.47v5.08H97.1V82.56Z"/><path class="cls-1" d="M100.38,85.52a1.36,1.36,0,0,0,.51.94,1.85,1.85,0,0,0,1.15.34,2.38,2.38,0,0,0,.81-.14,1.54,1.54,0,0,0,.66-.4l.68.66a2.38,2.38,0,0,1-.45.38,2.73,2.73,0,0,1-.54.27,2.69,2.69,0,0,1-.59.16,3,3,0,0,1-.59,0,3,3,0,0,1-1.13-.19,2.35,2.35,0,0,1-1.41-1.39,3,3,0,0,1-.19-1.1A3.08,3.08,0,0,1,99.48,84a2.5,2.5,0,0,1,1.38-1.38,2.94,2.94,0,0,1,1.09-.19,3.23,3.23,0,0,1,1.11.19,2.2,2.2,0,0,1,.85.57,2.46,2.46,0,0,1,.5,1,4.14,4.14,0,0,1,.09,1.35Zm3.1-.89a1.26,1.26,0,0,0-.45-.92,1.72,1.72,0,0,0-1-.31,1.76,1.76,0,0,0-1,.31,1.38,1.38,0,0,0-.55.92Z"/><path class="cls-1" d="M109.42,87.64V84.93a1.59,1.59,0,0,0-.36-1.07,1.29,1.29,0,0,0-1-.41,1.34,1.34,0,0,0-.58.12,1.57,1.57,0,0,0-.46.34,1.39,1.39,0,0,0-.28.49,1.71,1.71,0,0,0-.11.59v2.65h-1.05V82.57h1l.06.74a2.19,2.19,0,0,1,2.57-.67,1.86,1.86,0,0,1,.68.46,2.27,2.27,0,0,1,.47.77,3.1,3.1,0,0,1,.17,1.06v2.72h-1.06Z"/><path class="cls-1" d="M116.13,87a2.65,2.65,0,0,1-.9.62,2.8,2.8,0,0,1-1,.17,3,3,0,0,1-1-.17,2.42,2.42,0,0,1-.85-.5,2.26,2.26,0,0,1-.58-.83,3,3,0,0,1-.21-1.16,2.79,2.79,0,0,1,.21-1.16,2.38,2.38,0,0,1,.58-.84,2.33,2.33,0,0,1,.85-.5,3.15,3.15,0,0,1,1-.17,2.58,2.58,0,0,1,1,.18,2.63,2.63,0,0,1,.85.58l-.66.68a1.69,1.69,0,0,0-.55-.32,1.77,1.77,0,0,0-1.23,0,1.87,1.87,0,0,0-.52.34,1.54,1.54,0,0,0-.35.51,2.07,2.07,0,0,0,0,1.39,1.59,1.59,0,0,0,.35.52,1.44,1.44,0,0,0,.52.31,1.79,1.79,0,0,0,.62.1,1.76,1.76,0,0,0,.64-.11,1.35,1.35,0,0,0,.56-.36Z"/><path class="cls-1" d="M117.74,85.52a1.29,1.29,0,0,0,.51.94,1.84,1.84,0,0,0,1.14.34,2.48,2.48,0,0,0,.82-.14,1.44,1.44,0,0,0,.65-.4l.69.66a2.38,2.38,0,0,1-.45.38,3.89,3.89,0,0,1-.54.27,2.85,2.85,0,0,1-.59.16,3.17,3.17,0,0,1-.6,0,3.08,3.08,0,0,1-1.13-.19,2.38,2.38,0,0,1-.86-.54,2.25,2.25,0,0,1-.54-.85,2.8,2.8,0,0,1-.19-1.1,2.87,2.87,0,0,1,.19-1.07,2.48,2.48,0,0,1,.54-.83,2.4,2.4,0,0,1,.84-.55,2.88,2.88,0,0,1,1.08-.19,3.24,3.24,0,0,1,1.12.19,2.15,2.15,0,0,1,1.34,1.52,3.66,3.66,0,0,1,.09,1.35Zm3.09-.89a1.19,1.19,0,0,0-.45-.92,1.68,1.68,0,0,0-1-.31,1.76,1.76,0,0,0-1,.31,1.42,1.42,0,0,0-.55.92Z"/><path class="cls-1" d="M6.79,86.12H2.9l-.68,1.51H1l3.23-7.19H5.47L8.7,87.63H7.48ZM4.85,81.64,3.33,85.06h3Z"/></g></g></svg>